# xmcd CD database generated by RipIT
#
# Track frame offsets:
# 150
# 12055
# 26028
# 42628
#
# Disc length: 816 seconds
#
# Revision: 0
# Processed by: cddbd v1.5.2PL0 Copyright (c) Steve Scherf et al.
# Submitted via: RipIT 4.0.0-beta20140508 www.suwald.com/ripit/ripit.html on 2018-04-06 at 18:55
#
DISCID=2a032e04
DTITLE=Eddy de Pretto - Kid
DYEAR=2017
DGENRE=Pop
TTITLE0=Fête de trop
TTITLE1=Kid
TTITLE2=Jungle de la chope
TTITLE3=Beaulieue
EXTD=
EXTT0=
EXTT1=
EXTT2=
EXTT3=
PLAYORDER=
